<svg xmlns="http://www.w3.org/2000/svg" viewBox="-15 -20 80 60" width="64" height="64">
  <rect width="64" height="64" x="-15" y="-20" fill="#020200" rx="12"/>
  <defs>
    <radialGradient id="bg" cx="50%" cy="40%" r="60%"><stop offset="0%" stop-color="#ffe566"/><stop offset="100%" stop-color="#f5a800"/></radialGradient>
    <radialGradient id="hg" cx="40%" cy="35%" r="60%"><stop offset="0%" stop-color="#ffe566"/><stop offset="100%" stop-color="#e09500"/></radialGradient>
    <radialGradient id="wg" cx="30%" cy="20%" r="70%"><stop offset="0%" stop-color="rgba(220,240,255,0.5)"/><stop offset="100%" stop-color="rgba(180,210,255,0.1)"/></radialGradient>
  </defs>
  <!-- Ailes -->
  <path d="M-5,-5 Q-8,-22 4,-18 Q12,-14 9,-5" fill="url(#wg)" stroke="rgba(200,230,255,0.5)" stroke-width="0.8"/>
  <path d="M14,-5 Q18,-22 28,-18 Q36,-14 32,-5" fill="url(#wg)" stroke="rgba(200,230,255,0.5)" stroke-width="0.8"/>
  <path d="M-3,5 Q-8,18 3,16 Q10,14 10,5" fill="url(#wg)" stroke="rgba(200,230,255,0.4)" stroke-width="0.7" opacity="0.85"/>
  <path d="M16,5 Q20,18 30,15 Q35,12 32,5" fill="url(#wg)" stroke="rgba(200,230,255,0.4)" stroke-width="0.7" opacity="0.85"/>
  <!-- Corps -->
  <ellipse cx="13" cy="3" rx="22" ry="13" fill="url(#bg)"/>
  <path d="M2,-8 Q0,3 2,13 Q5,15 8,13 Q10,3 8,-8 Q5,-10 2,-8" fill="#1a1200" opacity="0.75"/>
  <path d="M16,-9 Q14,3 16,13 Q19,15 22,13 Q24,3 22,-9 Q19,-11 16,-9" fill="#1a1200" opacity="0.75"/>
  <ellipse cx="33" cy="3" rx="5" ry="7" fill="#c97d00"/>
  <path d="M36,-1 Q41,3 36,7" fill="#8a5c00"/>
  <!-- Thorax -->
  <ellipse cx="-8" cy="2" rx="10" ry="9" fill="#c97d00"/>
  <!-- Tête -->
  <circle cx="-20" cy="2" r="10" fill="url(#hg)"/>
  <ellipse cx="-24" cy="0" rx="3.5" ry="4.5" fill="#1a0a00"/>
  <ellipse cx="-16" cy="-1" rx="3" ry="4" fill="#1a0a00"/>
  <ellipse cx="-25" cy="-1" rx="1.3" ry="1.8" fill="rgba(255,255,255,0.3)"/>
  <ellipse cx="-17" cy="-2" rx="1" ry="1.5" fill="rgba(255,255,255,0.3)"/>
  <!-- Antennes -->
  <path d="M-26,-9 Q-30,-20 -28,-28" fill="none" stroke="#c97d00" stroke-width="1.5" stroke-linecap="round"/>
  <circle cx="-28" cy="-29" r="3" fill="#ffd23f"/>
  <path d="M-18,-10 Q-15,-20 -16,-28" fill="none" stroke="#c97d00" stroke-width="1.5" stroke-linecap="round"/>
  <circle cx="-16" cy="-29" r="3" fill="#ffd23f"/>
</svg>
